<svg width="23" height="23" viewBox="0 0 23 23" fill="none" xmlns="http://www.w3.org/2000/svg">
<g clip-path="url(#clip0_6_8)">
<path d="M19.597 19.5973H16.1891V14.2603C16.1891 12.9877 16.1664 11.3494 14.4167 11.3494C12.6417 11.3494 12.3701 12.736 12.3701 14.1677V19.5969H8.96233V8.62197H12.2338V10.1218H12.2796C12.607 9.56201 13.0801 9.10148 13.6486 8.78927C14.217 8.47707 14.8595 8.32489 15.5075 8.34894C18.9616 8.34894 19.5984 10.6209 19.5984 13.5766L19.597 19.5973ZM5.11702 7.12185C4.02479 7.12203 3.1392 6.23671 3.13902 5.14448C3.13884 4.05225 4.02407 3.16666 5.1163 3.16648C6.20853 3.16621 7.09412 4.05153 7.0943 5.14376C7.09439 5.66827 6.88613 6.17134 6.51532 6.5423C6.14451 6.91326 5.64153 7.12173 5.11702 7.12185ZM6.82099 19.5974H3.40954V8.62197H6.82091V19.5973L6.82099 19.5974ZM21.2959 0.00155189H1.69712C0.770827 -0.00886999 0.0111982 0.73315 -0.00012207 1.65944V21.34C0.0108389 22.2667 0.770378 23.0095 1.69703 22.9998H21.2959C22.2245 23.0113 22.987 22.2685 22.9999 21.34V1.65791C22.9867 0.729825 22.2241 -0.0121044 21.2959 2.4545e-05" fill="#0A66C2"/>
</g>
<defs>
<clipPath id="clip0_6_8">
<rect width="23" height="23" fill="white"/>
</clipPath>
</defs>
</svg>
