<svg width="17" height="17" viewBox="0 0 17 17" fill="none" xmlns="http://www.w3.org/2000/svg">
<path d="M14.8103 12.2486L12.9791 11.1911C12.949 11.1739 12.9158 11.1628 12.8814 11.1584C12.8471 11.154 12.8121 11.1564 12.7787 11.1655C12.7452 11.1746 12.7139 11.1902 12.6865 11.2114C12.659 11.2326 12.6361 11.259 12.6188 11.2891L12.2885 11.8618C12.2154 11.988 12.2586 12.1507 12.3848 12.2237L14.2159 13.2812C14.246 13.2985 14.2792 13.3096 14.3136 13.314C14.348 13.3184 14.3829 13.316 14.4163 13.3069C14.4498 13.2978 14.4811 13.2822 14.5085 13.261C14.536 13.2398 14.559 13.2134 14.5762 13.1833L14.9065 12.6105C14.9796 12.4844 14.9348 12.3217 14.8103 12.2486ZM12.6172 5.71094C12.6344 5.74103 12.6574 5.76743 12.6848 5.78863C12.7122 5.80984 12.7436 5.82544 12.777 5.83453C12.8105 5.84363 12.8454 5.84604 12.8798 5.84164C12.9142 5.83724 12.9474 5.82611 12.9774 5.80889L14.8086 4.75137C14.9348 4.67832 14.9779 4.51562 14.9049 4.38945L14.5762 3.81836C14.559 3.78827 14.536 3.76187 14.5085 3.74066C14.4811 3.71946 14.4498 3.70386 14.4163 3.69477C14.3829 3.68567 14.348 3.68325 14.3136 3.68765C14.2792 3.69205 14.246 3.70318 14.2159 3.72041L12.3848 4.77793C12.3241 4.81327 12.28 4.87119 12.2619 4.93901C12.2439 5.00683 12.2534 5.07904 12.2885 5.13984L12.6172 5.71094ZM15.5059 7.90234H13.3809C13.2348 7.90234 13.1152 8.02187 13.1152 8.16797V8.83203C13.1152 8.97813 13.2348 9.09766 13.3809 9.09766H15.5059C15.652 9.09766 15.7715 8.97813 15.7715 8.83203V8.16797C15.7715 8.02187 15.652 7.90234 15.5059 7.90234ZM10.3909 1.90918C10.293 1.90918 10.1934 1.93574 10.1021 1.99717L4.2168 5.84375H1.49414C1.34805 5.84375 1.22852 5.96328 1.22852 6.10938V10.8906C1.22852 11.0367 1.34805 11.1562 1.49414 11.1562H4.2168L10.1021 15.0028C10.1934 15.0626 10.2946 15.0908 10.3909 15.0908C10.6682 15.0908 10.9238 14.87 10.9238 14.5579V2.44209C10.9238 2.12998 10.6682 1.90918 10.3909 1.90918Z" fill="black"/>
</svg>
