<svg width="18" height="23" viewBox="0 0 18 23" fill="none" xmlns="http://www.w3.org/2000/svg">
<path d="M13.3397 8.28169C14.653 9.34009 16.2619 9.96283 17.9995 9.96283V6.19321C17.6706 6.19329 17.3426 6.15459 17.0209 6.07773V9.04497C15.2834 9.04497 13.6747 8.42231 12.3611 7.36399V15.0568C12.3611 18.9051 9.59391 22.0246 6.18066 22.0246C4.90709 22.0246 3.72331 21.5905 2.73999 20.846C3.86232 22.1398 5.42747 22.9424 7.15899 22.9424C10.5725 22.9424 13.3398 19.8229 13.3398 15.9744V8.28169H13.3397ZM14.5469 4.4786C13.8757 3.65195 13.435 2.58364 13.3397 1.40255V0.917725H12.4123C12.6458 2.41883 13.442 3.70128 14.5469 4.4786H14.5469ZM4.89886 17.893C4.52388 17.3387 4.32118 16.6606 4.32209 15.9634C4.32209 14.2033 5.58779 12.7762 7.14936 12.7762C7.44033 12.776 7.72958 12.8264 8.00696 12.9255V9.07162C7.68282 9.02157 7.35572 9.00024 7.02877 9.00809V12.0078C6.75127 11.9086 6.46186 11.8582 6.17075 11.8585C4.60925 11.8585 3.34362 13.2855 3.34362 15.0458C3.34362 16.2904 3.97622 17.368 4.89886 17.893Z" fill="#FF004F"/>
<path d="M12.3611 7.36391C13.6748 8.42223 15.2833 9.04489 17.0209 9.04489V6.07766C16.051 5.84472 15.1924 5.27337 14.5469 4.4786C13.4419 3.7012 12.6458 2.41875 12.4123 0.917725H9.97648V15.9742C9.97092 17.7295 8.70741 19.1508 7.14921 19.1508C6.23107 19.1508 5.4153 18.6574 4.89872 17.8929C3.97622 17.368 3.34355 16.2904 3.34355 15.0458C3.34355 13.2857 4.60917 11.8586 6.17067 11.8586C6.46985 11.8586 6.7582 11.9111 7.02869 12.0078V9.00817C3.67535 9.08629 0.978516 12.1753 0.978516 15.9743C0.978516 17.8708 1.65007 19.59 2.74005 20.8462C3.72337 21.5905 4.90709 22.0247 6.18073 22.0247C9.59405 22.0247 12.3612 18.9051 12.3612 15.0568V7.36399H12.3611V7.36391Z" fill="black"/>
<path d="M17.0209 6.07755V5.27541C16.1463 5.2769 15.2889 5.00077 14.5469 4.47858C15.2037 5.2893 16.0687 5.84837 17.0209 6.07771V6.07755ZM12.4123 0.917621C12.39 0.774197 12.3729 0.629812 12.3611 0.484824V0H8.99775V15.0567C8.99241 16.8118 7.72889 18.2331 6.17063 18.2331C5.72887 18.2338 5.29315 18.1173 4.89867 17.893C5.41526 18.6574 6.23102 19.1507 7.14916 19.1507C8.70729 19.1507 9.97094 17.7296 9.97643 15.9743V0.9177H12.4123V0.917621ZM7.02886 9.00807V8.15398C6.74781 8.11064 6.46448 8.08897 6.18082 8.0891C2.76715 8.0891 0 11.2087 0 15.0567C0 17.4692 1.08752 19.5954 2.74015 20.846C1.65016 19.5899 0.978609 17.8706 0.978609 15.9742C0.978609 12.1752 3.67538 9.08627 7.02886 9.00815V9.00807Z" fill="#00F2EA"/>
</svg>
