<svg width="16" height="16" viewBox="0 0 16 16" fill="none" xmlns="http://www.w3.org/2000/svg">
<path d="M14 1C14.2652 1 14.5196 1.10536 14.7071 1.29289C14.8946 1.48043 15 1.73478 15 2V14C15 14.2652 14.8946 14.5196 14.7071 14.7071C14.5196 14.8946 14.2652 15 14 15H2C1.73478 15 1.48043 14.8946 1.29289 14.7071C1.10536 14.5196 1 14.2652 1 14V2C1 1.73478 1.10536 1.48043 1.29289 1.29289C1.48043 1.10536 1.73478 1 2 1H14ZM2 0C1.46957 0 0.960859 0.210714 0.585786 0.585786C0.210714 0.960859 0 1.46957 0 2L0 14C0 14.5304 0.210714 15.0391 0.585786 15.4142C0.960859 15.7893 1.46957 16 2 16H14C14.5304 16 15.0391 15.7893 15.4142 15.4142C15.7893 15.0391 16 14.5304 16 14V2C16 1.46957 15.7893 0.960859 15.4142 0.585786C15.0391 0.210714 14.5304 0 14 0L2 0Z" fill="black"/>
<path d="M4.64604 4.64598C4.69248 4.59941 4.74766 4.56247 4.80841 4.53727C4.86915 4.51206 4.93427 4.49908 5.00004 4.49908C5.06581 4.49908 5.13093 4.51206 5.19167 4.53727C5.25242 4.56247 5.30759 4.59941 5.35404 4.64598L8.00004 7.29298L10.646 4.64598C10.6925 4.59949 10.7477 4.56261 10.8085 4.53745C10.8692 4.5123 10.9343 4.49935 11 4.49935C11.0658 4.49935 11.1309 4.5123 11.1916 4.53745C11.2524 4.56261 11.3076 4.59949 11.354 4.64598C11.4005 4.69247 11.4374 4.74766 11.4626 4.80839C11.4877 4.86913 11.5007 4.93423 11.5007 4.99998C11.5007 5.06572 11.4877 5.13082 11.4626 5.19156C11.4374 5.2523 11.4005 5.30749 11.354 5.35398L8.70704 7.99998L11.354 10.646C11.4005 10.6925 11.4374 10.7477 11.4626 10.8084C11.4877 10.8691 11.5007 10.9342 11.5007 11C11.5007 11.0657 11.4877 11.1308 11.4626 11.1916C11.4374 11.2523 11.4005 11.3075 11.354 11.354C11.3076 11.4005 11.2524 11.4373 11.1916 11.4625C11.1309 11.4877 11.0658 11.5006 11 11.5006C10.9343 11.5006 10.8692 11.4877 10.8085 11.4625C10.7477 11.4373 10.6925 11.4005 10.646 11.354L8.00004 8.70698L5.35404 11.354C5.30755 11.4005 5.25236 11.4373 5.19162 11.4625C5.13088 11.4877 5.06578 11.5006 5.00004 11.5006C4.9343 11.5006 4.86919 11.4877 4.80846 11.4625C4.74772 11.4373 4.69253 11.4005 4.64604 11.354C4.59955 11.3075 4.56267 11.2523 4.53752 11.1916C4.51236 11.1308 4.49941 11.0657 4.49941 11C4.49941 10.9342 4.51236 10.8691 4.53752 10.8084C4.56267 10.7477 4.59955 10.6925 4.64604 10.646L7.29304 7.99998L4.64604 5.35398C4.59948 5.30753 4.56253 5.25236 4.53733 5.19161C4.51212 5.13087 4.49915 5.06575 4.49915 4.99998C4.49915 4.93421 4.51212 4.86909 4.53733 4.80834C4.56253 4.7476 4.59948 4.69242 4.64604 4.64598Z" fill="black"/>
</svg>
